<?xml version="1.0" standalone="no"?>
<!DOCTYPE svg PUBLIC "-//W3C//DTD SVG 20010904//EN"
 "http://www.w3.org/TR/2001/REC-SVG-20010904/DTD/svg10.dtd">
<svg version="1.0" xmlns="http://www.w3.org/2000/svg"
 width="16.000000pt" height="16.000000pt" viewBox="0 0 16.000000 16.000000"
 preserveAspectRatio="xMidYMid meet">
<metadata>
Created by potrace 1.11, written by Peter Selinger 2001-2013
</metadata>
<g transform="translate(0.000000,16.000000) scale(0.003137,-0.003137)"
fill="#000000" stroke="none">
<path d="M0 2550 l0 -2550 2550 0 2550 0 0 2550 0 2550 -2550 0 -2550 0 0
-2550z m2845 2176 c109 -29 218 -102 289 -194 39 -51 51 -60 88 -66 66 -11
163 -62 226 -121 106 -98 153 -227 132 -359 l-10 -65 48 -63 c67 -88 94 -157
100 -249 6 -98 -15 -169 -72 -246 l-43 -59 83 -27 c191 -60 353 -157 501 -300
52 -50 99 -99 104 -108 21 -40 -186 -261 -346 -369 -127 -85 -183 -114 -200
-100 -9 7 -29 20 -46 29 -22 12 -58 60 -128 176 l-98 159 -124 -3 c-68 -1
-126 -5 -128 -7 -2 -2 22 -48 53 -103 31 -54 56 -104 56 -111 0 -7 -19 -10
-57 -8 l-56 3 -61 108 -60 107 -41 -1 c-78 -1 -78 -1 -39 -122 20 -60 34 -110
32 -112 -2 -1 -26 -6 -53 -10 l-51 -6 -38 122 -37 122 -87 -7 c-47 -4 -90 -10
-94 -12 -12 -8 -10 -45 7 -102 12 -40 28 -62 75 -105 l60 -54 -52 -26 c-48
-25 -53 -26 -70 -10 -17 15 -18 14 -18 -15 0 -26 -8 -38 -47 -67 -27 -19 -51
-35 -55 -35 -5 0 -8 142 -8 315 0 177 -4 315 -9 315 -12 0 -25 -391 -17 -535
l7 -120 -49 -36 -48 -37 -35 30 c-117 100 -236 148 -389 155 -133 7 -214 -8
-469 -87 -211 -65 -381 -103 -533 -119 -193 -21 -253 -11 -253 44 0 42 32 55
135 55 101 0 244 21 392 56 l108 26 -62 40 c-114 74 -264 238 -303 332 -14 34
-14 40 2 74 10 20 65 84 123 142 103 104 218 189 328 244 l53 27 -30 54 c-72
128 -103 285 -82 411 19 105 64 187 150 273 73 72 75 75 72 120 -4 70 25 188
65 269 46 94 136 187 219 228 79 38 186 41 254 7 l44 -22 56 43 c70 55 145 93
219 110 74 18 253 20 317 2z m308 -3058 c322 -326 383 -395 418 -471 21 -47
25 -121 8 -164 -23 -62 -100 -112 -171 -113 -36 0 -38 -2 -38 -31 0 -79 -86
-159 -171 -159 -43 0 -44 -1 -69 -52 -31 -65 -82 -98 -152 -98 -46 0 -48 -1
-48 -27 0 -35 -31 -87 -65 -109 -35 -23 -135 -16 -198 15 -50 24 -147 96 -147
109 0 4 16 24 35 45 l35 39 62 -56 c64 -58 88 -70 129 -64 31 4 54 46 45 81
-3 15 -47 71 -96 124 -89 96 -147 190 -136 218 3 9 19 15 37 15 37 0 64 -26
187 -172 39 -48 82 -94 94 -102 43 -30 109 -13 128 34 19 46 -8 85 -154 229
-76 75 -139 145 -143 159 -14 59 46 81 103 37 19 -14 89 -87 155 -161 96 -105
129 -136 159 -145 50 -15 88 -5 102 27 19 42 -20 102 -126 194 -50 43 -122
110 -159 149 -63 65 -68 73 -65 108 3 35 6 38 37 41 33 3 42 -4 175 -142 167
-172 200 -196 268 -196 39 0 54 5 73 25 14 13 25 34 25 47 -1 66 -39 111 -386
458 -189 190 -344 349 -344 353 0 4 9 7 20 7 16 0 20 7 20 35 0 27 4 35 17 35
10 0 160 -144 336 -322z m-1958 -282 c110 -30 202 -83 288 -165 l79 -77 -26
-38 c-14 -21 -26 -43 -26 -49 0 -5 -37 25 -81 68 -62 59 -100 86 -163 115
-119 55 -164 64 -321 65 -77 0 -146 4 -152 8 -30 19 -8 72 37 91 30 12 304 -1
365 -18z"/>
<path d="M2560 4625 c-77 -22 -138 -53 -182 -93 -40 -36 -44 -47 -28 -72 8
-12 14 -10 37 12 47 45 110 68 187 68 98 0 137 -25 202 -129 2 -1 21 12 44 30
38 31 49 34 128 39 l87 5 -40 38 c-22 21 -73 54 -113 74 -65 33 -81 36 -170
39 -66 3 -114 -1 -152 -11z"/>
<path d="M2040 4506 c-110 -29 -180 -105 -230 -252 -10 -29 -21 -77 -25 -108
l-7 -56 73 25 c40 14 80 25 89 25 9 0 37 24 62 53 25 28 71 68 101 87 31 19
56 41 57 48 0 7 18 32 41 57 39 42 40 44 24 68 -31 48 -114 72 -185 53z"/>
<path d="M2479 4410 c-19 -10 -41 -26 -48 -34 -11 -13 -8 -18 20 -35 46 -28
111 -36 176 -21 59 13 71 27 53 60 -26 48 -135 65 -201 30z"/>
<path d="M3122 4355 c6 -14 40 -46 75 -72 96 -70 162 -164 209 -297 27 -78 28
-78 45 -57 42 52 42 167 0 248 -40 79 -146 156 -246 181 -100 25 -96 25 -83
-3z"/>
<path d="M2900 4301 c-56 -147 -156 -274 -255 -321 -97 -47 -228 -26 -349 55
l-51 34 -3 -37 c-2 -20 2 -68 8 -106 l12 -68 82 -38 c153 -72 267 -75 402 -9
159 78 304 281 304 425 0 38 -5 51 -29 73 -16 15 -45 32 -64 38 l-35 11 -22
-57z"/>
<path d="M2278 4313 c-19 -22 -40 -95 -30 -104 151 -141 261 -180 362 -129 39
20 107 96 135 150 l14 27 -62 -25 c-48 -20 -80 -26 -137 -26 -90 0 -147 22
-213 83 -24 23 -46 41 -49 41 -3 0 -12 -8 -20 -17z"/>
<path d="M3132 4113 c-67 -195 -214 -352 -397 -423 -79 -32 -260 -35 -344 -7
-29 10 -55 16 -57 14 -8 -8 104 -142 149 -179 76 -63 166 -115 272 -157 138
-54 213 -69 268 -52 23 7 68 18 99 26 71 16 112 45 150 104 115 181 82 514
-68 698 -20 24 -38 43 -42 43 -4 0 -18 -30 -30 -67z"/>
<path d="M2066 4099 c-70 -75 -111 -157 -133 -265 -20 -97 -8 -203 37 -326 26
-71 90 -200 109 -220 3 -4 46 -19 96 -33 117 -34 234 -96 305 -162 78 -71 103
-72 191 -1 35 28 88 67 117 86 28 19 52 38 52 41 0 3 -35 17 -78 29 -157 48
-314 142 -414 251 -134 144 -201 319 -216 558 l-7 106 -59 -64z"/>
<path d="M1782 3970 c-133 -67 -204 -166 -226 -317 -8 -61 -7 -89 6 -154 17
-83 52 -169 84 -206 17 -20 24 -22 59 -13 22 5 83 12 136 16 l96 7 -32 71
c-51 112 -67 185 -72 346 -4 121 -1 157 15 218 10 39 18 72 16 72 -1 0 -38
-18 -82 -40z"/>
<path d="M3467 3808 c-23 -17 -27 -25 -21 -53 8 -46 -12 -201 -36 -271 -12
-32 -31 -75 -45 -95 l-24 -37 22 -6 c12 -3 43 -6 69 -6 42 0 51 4 94 47 63 64
88 121 89 203 0 76 -33 155 -87 207 l-33 32 -28 -21z"/>
<path d="M3185 3243 c-15 -3 -41 -49 -102 -181 -45 -97 -85 -185 -89 -194 -5
-16 1 -18 48 -18 l54 0 153 193 154 192 -54 7 c-60 7 -133 7 -164 1z"/>
<path d="M3384 3039 c-75 -94 -133 -173 -131 -176 3 -2 54 -2 114 2 l108 8 99
144 c54 80 94 148 90 153 -13 11 -104 40 -126 40 -11 0 -67 -62 -154 -171z"/>
<path d="M1870 3187 c0 -7 16 -90 36 -184 l37 -173 84 0 c46 0 83 4 83 8 0 13
-121 336 -128 343 -4 4 -31 9 -59 12 -38 4 -53 3 -53 -6z"/>
<path d="M2932 3142 c-46 -25 -119 -75 -162 -109 l-80 -63 0 -65 0 -66 87 3
87 3 79 168 c43 93 77 170 75 172 -2 2 -41 -17 -86 -43z"/>
<path d="M1649 3151 c-60 -23 -150 -67 -178 -87 -2 -2 14 -25 36 -51 22 -26
58 -76 81 -110 23 -34 47 -65 54 -69 11 -7 179 -7 186 1 4 4 -19 125 -50 258
-15 67 -23 87 -36 87 -9 -1 -51 -14 -93 -29z"/>
<path d="M2110 3157 c0 -2 18 -53 41 -113 23 -60 50 -133 61 -161 l19 -53 110
0 109 0 0 74 0 74 -47 42 c-51 43 -205 124 -260 135 -18 4 -33 5 -33 2z"/>
<path d="M3762 3102 c-10 -15 -49 -71 -86 -124 l-67 -98 79 0 80 0 55 100 55
101 -48 24 -49 25 -19 -28z"/>
<path d="M3935 2963 c-16 -31 -31 -60 -33 -65 -4 -10 57 -10 149 -2 l66 7 -36
32 c-40 35 -106 85 -112 85 -2 0 -17 -26 -34 -57z"/>
<path d="M1286 2910 l-81 -80 154 0 c121 0 151 3 144 13 -63 83 -117 147 -125
147 -6 0 -47 -36 -92 -80z"/>
<path d="M3910 2783 c0 -6 78 -113 83 -113 2 0 29 27 62 60 l59 60 -102 0
c-56 0 -102 -3 -102 -7z"/>
<path d="M3633 2773 c-18 -2 -33 -6 -33 -8 0 -4 147 -245 154 -252 5 -5 95 45
130 72 22 17 21 19 -47 115 l-53 75 -59 1 c-33 1 -75 -1 -92 -3z"/>
<path d="M1207 2699 c20 -34 156 -169 169 -169 5 1 39 46 76 100 l68 100 -166
0 -165 0 18 -31z"/>
<path d="M1579 2628 c-40 -57 -81 -115 -91 -130 l-19 -27 50 -26 c62 -31 76
-31 96 -2 14 19 159 242 179 275 5 9 -10 12 -68 12 l-75 0 -72 -102z"/>
<path d="M1902 2688 c-16 -24 -52 -81 -81 -127 l-51 -83 32 6 c18 3 63 8 100
12 l67 7 44 76 c25 42 55 93 67 114 l22 37 -86 0 -85 0 -29 -42z"/>
<path d="M2193 2676 c-18 -29 -48 -80 -66 -113 l-34 -60 98 -22 c110 -25 114
-24 181 37 45 41 72 90 81 145 10 66 8 67 -117 67 l-111 -1 -32 -53z"/>
<path d="M2426 2421 c-19 -21 -19 -22 0 -35 17 -13 19 -13 22 5 2 10 2 26 0
35 -2 14 -6 13 -22 -5z"/>
</g>
</svg>
